<svg width="26" height="28" viewBox="0 0 26 28" fill="none" xmlns="http://www.w3.org/2000/svg">
<g id="Layer_1" clip-path="url(#clip0_75_4987)">
<path id="Vector" d="M18.4176 28.0002C17.6136 27.8659 16.8352 27.655 16.1066 27.2755C15.3867 26.9004 14.7444 26.4268 14.2111 25.8175C14.0378 25.6197 13.8556 25.5504 13.5966 25.5511C10.4671 25.5591 7.33751 25.5584 4.20794 25.5555C2.39735 25.5533 0.85671 24.4725 0.236356 22.781C-0.00432347 22.1256 -0.0270015 21.4477 0.0198177 20.7617C0.0710261 20.0094 0.119308 19.2562 0.164664 18.5031C0.255377 17.0057 0.343894 15.5082 0.430948 14.0108C0.490936 12.976 0.547265 11.9412 0.605057 10.9064C0.683333 9.51765 0.758683 8.1282 0.842079 6.7402C0.864026 6.37386 0.883778 6.3673 1.2554 6.36657C2.31396 6.36584 3.37251 6.35854 4.43033 6.37167C4.69808 6.37459 4.76757 6.2841 4.76904 6.0265C4.77416 5.26464 4.70393 4.49912 4.87731 3.74236C5.3572 1.65453 7.33751 -0.125342 9.9367 0.00747391C12.0516 0.115478 14.0173 1.86105 14.3692 4.03646C14.476 4.69689 14.4313 5.36242 14.4277 6.02577C14.4262 6.28483 14.5016 6.37386 14.7679 6.37094C15.8352 6.35854 16.9025 6.37094 17.9706 6.36219C18.2178 6.36 18.3195 6.42276 18.3334 6.69569C18.4307 8.58429 18.547 10.4714 18.6575 12.3593C18.6926 12.9585 18.738 13.5569 18.7599 14.156C18.7694 14.4099 18.8536 14.4997 19.1198 14.4997C22.4228 14.5012 25.1193 16.6569 25.8442 19.8641C26.6643 23.4917 24.1617 27.2485 20.4871 27.9075C20.3262 27.9367 20.166 27.9688 20.0057 27.9994H18.4176V28.0002ZM8.28633 23.8428C9.73699 23.8428 11.1877 23.8398 12.6383 23.8464C12.868 23.8471 12.9265 23.7982 12.8351 23.5684C12.6083 22.9984 12.4876 22.3986 12.443 21.7892C12.2206 18.7768 13.9844 16.0096 16.8118 14.9397C17.0327 14.8558 17.1073 14.7478 17.0905 14.5216C17.0305 13.6875 16.9808 12.8526 16.931 12.0178C16.8572 10.7925 16.7825 9.56728 16.7174 8.34202C16.7072 8.14498 16.6428 8.07055 16.4409 8.07419C15.8659 8.08441 15.2909 8.08514 14.7166 8.07419C14.5038 8.06982 14.4255 8.13914 14.4306 8.35515C14.4423 8.85576 14.427 9.35638 14.4372 9.85699C14.4416 10.0715 14.3567 10.1496 14.1475 10.1452C13.7737 10.1365 13.3991 10.1328 13.0253 10.1467C12.7802 10.1555 12.7085 10.0518 12.7137 9.82196C12.7246 9.33083 12.7107 8.83898 12.7195 8.34785C12.7232 8.15082 12.6566 8.07419 12.451 8.07492C10.5351 8.08003 8.61918 8.08003 6.70252 8.07492C6.51451 8.07492 6.44282 8.13695 6.44575 8.32742C6.45453 8.83679 6.44063 9.34689 6.4516 9.85626C6.45599 10.0715 6.37186 10.1489 6.16337 10.1445C5.79833 10.1365 5.43328 10.1321 5.06897 10.146C4.8239 10.1555 4.75441 10.0518 4.76099 9.82123C4.77416 9.33886 4.75587 8.85649 4.76904 8.37412C4.77489 8.15301 4.70832 8.06763 4.47642 8.07274C3.92044 8.0866 3.363 8.09098 2.80702 8.07128C2.55098 8.06252 2.46319 8.16614 2.45295 8.39602C2.43466 8.79592 2.41198 9.1951 2.39004 9.59428C2.32932 10.6926 2.27153 11.7916 2.20715 12.8899C2.12522 14.2786 2.03743 15.6666 1.9533 17.0546C1.88234 18.2251 1.80699 19.3956 1.74554 20.5669C1.72213 21.0113 1.66946 21.4601 1.7631 21.9009C2.0111 23.0663 2.97967 23.834 4.20867 23.8406C5.56789 23.8479 6.92784 23.842 8.28706 23.8428H8.28633ZM14.1438 21.2609C14.0824 23.7961 16.1432 26.3356 19.2201 26.3276C22.3072 26.3188 24.3051 23.7712 24.2809 21.2645C24.2539 18.4506 22.0402 16.2124 19.2245 16.2073C16.3897 16.2022 14.1446 18.4353 14.1438 21.2609ZM9.57239 6.36511C10.5205 6.36511 11.4693 6.36511 12.4174 6.36511C12.5527 6.36511 12.7137 6.38627 12.7115 6.17756C12.7056 5.55946 12.77 4.9377 12.6778 4.32471C12.4386 2.73749 10.9338 1.4772 9.08372 1.74283C7.72377 1.93768 6.55841 3.18848 6.48452 4.55385C6.45745 5.05374 6.4538 5.55362 6.44355 6.0535C6.43916 6.28921 6.51159 6.37313 6.75446 6.37022C7.69377 6.35927 8.63308 6.36584 9.57239 6.36584V6.36511Z" fill="white"/>
<path id="Vector_2" d="M18.3253 24.2598C18.2522 24.2576 18.2149 24.2028 18.1732 24.1554C17.3692 23.2505 16.566 22.3449 15.7591 21.4422C15.6457 21.3152 15.6325 21.2225 15.7737 21.1043C16.0802 20.8467 16.3831 20.584 16.6742 20.3096C16.8366 20.1563 16.9427 20.1928 17.0744 20.3461C17.4475 20.781 17.8367 21.2035 18.209 21.6385C18.337 21.7881 18.4153 21.7779 18.5499 21.6378C19.449 20.6964 20.3605 19.7674 21.2603 18.826C21.4095 18.6698 21.5076 18.6669 21.6568 18.8202C21.9231 19.0946 22.1996 19.3595 22.4849 19.6134C22.6495 19.7594 22.6312 19.8601 22.4849 20.0097C21.6063 20.908 20.7365 21.8136 19.8638 22.7171C19.4146 23.1819 18.9662 23.6468 18.5155 24.1109C18.4592 24.1685 18.4109 24.2386 18.3253 24.259V24.2598Z" fill="white"/>
</g>
<defs>
<clipPath id="clip0_75_4987">
<rect width="26" height="28" fill="white"/>
</clipPath>
</defs>
</svg>
