<svg width="26" height="27" viewBox="0 0 26 27" fill="none" xmlns="http://www.w3.org/2000/svg">
<path id="Vector" fill-rule="evenodd" clip-rule="evenodd" d="M8.04946 21.0277C6.66792 21.0277 5.55014 22.158 5.55014 23.5395C5.55014 24.9211 6.66792 26.0514 8.04946 26.0514C9.431 26.0514 10.5613 24.9211 10.5613 23.5395C10.5613 22.158 9.431 21.0277 8.04946 21.0277ZM0.513672 2.18856C0.513672 2.87933 1.07885 3.4445 1.76961 3.4445H3.02556L7.54695 12.9771L5.85143 16.0416C4.93459 17.7246 6.14029 19.7718 8.04933 19.7718H21.8647C22.5555 19.7718 23.1206 19.2066 23.1206 18.5158C23.1206 17.825 22.5555 17.2599 21.8647 17.2599H8.04933L9.43086 14.748H18.7876C19.7296 14.748 20.5585 14.233 20.9855 13.4544L25.4818 5.3033C25.9465 4.47438 25.3437 3.4445 24.3891 3.4445H5.80119L4.95971 1.6485C4.75876 1.20892 4.30662 0.932617 3.82936 0.932617H1.76961C1.07885 0.932617 0.513672 1.49779 0.513672 2.18856ZM20.6087 21.0277C19.2271 21.0277 18.1093 22.158 18.1093 23.5395C18.1093 24.9211 19.2271 26.0514 20.6087 26.0514C21.9902 26.0514 23.1205 24.9211 23.1205 23.5395C23.1205 22.158 21.9902 21.0277 20.6087 21.0277Z" fill="#626262"/>
</svg>
